inDegrees=no
num_controls=7
num_derivatives=13
num_iterations=126
num_multipliers=7
num_parameters=0
num_slacks=7
num_states=26
objective=0.516829
objective_accelerations=0.038757
objective_balance=0.002177
objective_effort=0.043225
objective_height=0.421002
objective_ligament=0.011669
solver_duration=1653.514288
status=Solve_Succeeded
success=true
DataType=double
version=3
OpenSimVersion=4.5
endheader
time	/jointset/ground_pelvis/pelvis_tilt/value	/jointset/ground_pelvis/pelvis_tx/value	/jointset/ground_pelvis/pelvis_ty/value	/jointset/hip_l/hip_flexion_l/value	/jointset/hip_l/hip_adduction_l/value	/jointset/hip_l/hip_rotation_l/value	/jointset/back/lumbar_extension/value	/jointset/patellofemoral_l/patellar_flexion_l/value	/jointset/knee_l/knee_flexion_l/value	/jointset/knee_l/knee_adduction_l/value	/jointset/knee_l/knee_rotation_l/value	/jointset/ankle_l/ankle_angle_l/value	/jointset/subtalar_l/subtalar_angle_l/value	/jointset/ground_pelvis/pelvis_tilt/speed	/jointset/ground_pelvis/pelvis_tx/speed	/jointset/ground_pelvis/pelvis_ty/speed	/jointset/hip_l/hip_flexion_l/speed	/jointset/hip_l/hip_adduction_l/speed	/jointset/hip_l/hip_rotation_l/speed	/jointset/back/lumbar_extension/speed	/jointset/patellofemoral_l/patellar_flexion_l/speed	/jointset/knee_l/knee_flexion_l/speed	/jointset/knee_l/knee_adduction_l/speed	/jointset/knee_l/knee_rotation_l/speed	/jointset/ankle_l/ankle_angle_l/speed	/jointset/subtalar_l/subtalar_angle_l/speed	/forceset/tau_hip_flexion_l	/forceset/tau_hip_adduction_l	/forceset/tau_hip_rotation_l	/forceset/tau_knee_flexion_l	/forceset/tau_ankle_angle_l	/forceset/tau_subtalar_angle_l	/forceset/tau_lumbar_extension	lambda_cid13_p0	lambda_cid13_p1	lambda_cid13_p2	lambda_cid13_p3	lambda_cid13_p4	lambda_cid13_p5	lambda_cid14_p0	/jointset/ground_pelvis/pelvis_tilt/accel	/jointset/ground_pelvis/pelvis_tx/accel	/jointset/ground_pelvis/pelvis_ty/accel	/jointset/hip_l/hip_flexion_l/accel	/jointset/hip_l/hip_adduction_l/accel	/jointset/hip_l/hip_rotation_l/accel	/jointset/back/lumbar_extension/accel	/jointset/patellofemoral_l/patellar_flexion_l/accel	/jointset/knee_l/knee_flexion_l/accel	/jointset/knee_l/knee_adduction_l/accel	/jointset/knee_l/knee_rotation_l/accel	/jointset/ankle_l/ankle_angle_l/accel	/jointset/subtalar_l/subtalar_angle_l/accel	gamma_cid13_p0	gamma_cid13_p1	gamma_cid13_p2	gamma_cid13_p3	gamma_cid13_p4	gamma_cid13_p5	gamma_cid14_p0
1	-0.1537977842593542	-0.08848467335680249	0.7312125123319024	1.238300737279095	-0.3282631331471857	-0.006134107688597985	-0.9599267948549958	1.151929373910599	1.15192937390979	-0.08108764436248241	-0.1745303829003111	0.1455630885400273	0.01258594164867045	0.1062101921097566	0.02477775477865212	0.06587491243019405	-0.2894270765167761	0.0007110538623703389	-0.06383976044484804	-0.002218658623348677	-0.1652973566585759	-0.1652973566585902	0.0007859299452279598	-1.225098650370555e-05	0.009460747937127756	0.005256563599526179	-0.3945822469375486	0.02264034791858436	-0.005160165618361725	-0.2932207723409871	0.1041787036602487	0.03886043000202259	0.43378894267323	-16.69279611066885	-13.83594695479088	1.616336666014293	4.225598768419759	-785.5243113938033	-66.670800971183	-1.977520306195277	1.024751670329488	0.2019335295560911	1.232735040496193	-4.6033165488585	-0.0114790333120002	-1.388040139471694	0.3432755431003813	-4.082686268741199	-4.082686268741183	-0.2094234847482627	-0.01058016298949862	-0.7718582014406777	-0.2732690311341838	-8.672474935131503e-09	-1.250968041906087e-08	3.764744835631478e-08	1.823081649712912e-09	-2.056713213647116e-08	4.615012269169273e-08	-1.063969691767865e-08
1.01	-0.1526848918672282	-0.08822675386057938	0.7319326749820677	1.235177251061044	-0.3282559990921201	-0.006842047797435797	-0.9599310646685257	1.150072690347608	1.150072690346294	-0.0810891244563819	-0.1745304032816037	0.1456192442866393	0.01262558651517975	0.1163695289362263	0.02681295040762618	0.07814648898739462	-0.3352557787897451	0.0007224284507428782	-0.0777415562491673	0.001385118760772141	-0.2060279957407751	-0.2060279957407813	-0.001081610485028962	7.39150087557879e-06	0.00176766127024877	0.002678916760392732	-0.3937910009075016	0.02277041290130829	-0.005192915847308348	-0.2929567404294126	0.10408632463826	0.03896278175005949	0.4334380391807426	-16.68914813457793	-13.89121331440051	1.636771354591576	4.093286615350691	-785.1446708287772	-66.76060866137182	-2.018298588114641	1.011709634667906	0.205335012291181	1.222694360721755	-4.570490913791716	0.008444873087156975	-1.390256105972467	0.3719922656013072	-4.066545937016229	-4.066545937015038	-0.1753761227086591	0.008130620222734952	-0.7684461471737238	-0.2490390066538597	-1.415360812596528e-08	-1.984413427031484e-08	4.977148979955896e-08	7.648244661835718e-09	-2.649168994072067e-08	5.197484439547174e-08	-1.377405582911085e-08
1.02	-0.1514703691176627	-0.08794827792152203	0.7327752184772828	1.231595909050803	-0.3282485514575341	-0.007688807225337387	-0.9598986840224838	1.147809041751986	1.147809041750166	-0.08110927131469617	-0.1745302484049032	0.1455983867170102	0.01263964961402765	0.1265362635971782	0.02888904334550035	0.09035108144013478	-0.3809982349537467	0.000773769766126497	-0.0916036242559032	0.005111433326221708	-0.2466903631852525	-0.2466903631852505	-0.002947422937056503	2.280061309754783e-05	-0.005941915311118291	0.00014021006722116	-0.3929997548774842	0.02290047788402208	-0.005225666076221545	-0.2926927085178405	0.1039939456162734	0.03906513349808493	0.433087135688231	-16.69616986235499	-13.9444968066396	1.656758965752001	3.995794398849263	-784.9102687244355	-66.84309229714884	-2.068567748844754	1.02623123722589	0.210112991336134	1.219338219604116	-4.58606732706507	-0.003485687909785175	-1.380094579955018	0.3677829793662653	-4.069031941196858	-4.069031941196814	-0.2090778891023845	-0.01142683802096056	-0.7751561843382601	-0.265481001941797	-1.876785239821712e-08	-2.846556620037968e-08	6.119557907095682e-08	1.133936516320022e-08	-3.179504467125824e-08	5.711503388570592e-08	-1.691629615794123e-08
1.03	-0.1501546526370225	-0.08764863723735088	0.7337394330247931	1.227557936481182	-0.328240377076438	-0.008673887126433914	-0.9598265428629902	1.145139177728692	1.145139177727387	-0.08114813594429846	-0.1745299262412529	0.1455005805584356	0.01262862033181758	0.1365577459385819	0.03106613426821959	0.1024769339377288	-0.4265472432248547	0.0008678153346867311	-0.1053999672403411	0.009525473902065736	-0.2872650375684443	-0.2872650375684424	-0.004830501947538457	4.046277176449292e-05	-0.01359913339180893	-0.002331052225573083	-0.3935773683341246	0.02321333707202614	-0.005266680183104652	-0.2918969467571854	0.1037330089225671	0.03932043312965757	0.4343564592561919	-16.78647652248135	-14.05990196317888	1.69839150103727	3.557645926244314	-785.4905737765204	-66.960364671828	-2.128623821228856	0.9827119758928536	0.2255662836943335	1.206967195709366	-4.531964966153052	0.01685347757807216	-1.377564486666339	0.5095158958709014	-4.049070570382344	-4.049070570382416	-0.178684224865451	0.008204085334048742	-0.7579796681956804	-0.2356990738346677	-2.33732508651773e-08	-3.710013055982015e-08	7.261252597325421e-08	1.500870972057738e-08	-3.70920605949212e-08	6.224823835335292e-08	-2.005861690939813e-08
1.04	-0.148740200284306	-0.08732641381576177	0.7348244577834534	1.223065944351047	-0.3282310614799854	-0.00979656252318049	-0.9597040010378953	1.142064089884868	1.142064089884074	-0.0812059836275793	-0.1745294591875097	0.1453268072094021	0.01259332838050241	0.1462834380117914	0.03340559082909463	0.1145131236701714	-0.4718021470567441	0.001002012836812449	-0.1191227233839053	0.01519156644499907	-0.3277351272917164	-0.3277351272917148	-0.006744033671794888	5.177863137128228e-05	-0.02113535340294788	-0.004712323753825491	-0.3941549817907726	0.0235261962600215	-0.005307694289949471	-0.2911011849965318	0.1034720722288593	0.03957573276121905	0.4356257828241488	-16.88762602596613	-14.17335534812176	1.739652074537695	3.152838141719084	-786.2198152271081	-67.07097515421958	-2.198795625063433	0.9670731835870496	0.2425861189673117	1.201405666573833	-4.527246439221368	0.004544698803302003	-1.365377211780314	0.6181933727840688	-4.048115009212935	-4.04811500921291	-0.2151684318572813	-0.01269609783301012	-0.7509565704278957	-0.2474828490334302	-2.516281833892509e-08	-4.440661568349051e-08	8.06745463792806e-08	1.428359631312988e-08	-3.949328436808551e-08	6.304085938706009e-08	-2.227677339832235e-08
1.05	-0.1472298391871389	-0.08698004470741674	0.7360293087739884	1.218123006822359	-0.328220205256543	-0.011056016708029	-0.9595193257667414	1.138584987129619	1.138584987128596	-0.08128316455292996	-0.1745289439111176	0.1450781763070577	0.01253463504439273	0.1557495690712441	0.03588906979589044	0.1264329600469088	-0.5167188251287078	0.001179303861065252	-0.1327507019330099	0.02187711131868033	-0.3680510094379633	-0.3680510094379628	-0.00869339330163317	5.069819135561425e-05	-0.02857993641680617	-0.00701075550625112	-0.3935340130750332	0.0237585821571121	-0.005356371209463417	-0.2904208341565045	0.1036039076343041	0.03976727835778389	0.4357312136620667	-16.80865466553909	-14.2887680152186	1.779065904516746	2.735406082471256	-785.984374351865	-67.1886469093001	-2.279479994303562	0.9304989535872057	0.2543573044891214	1.18364708060104	-4.463901757997498	0.02582846812248815	-1.358919106687621	0.7137785744647254	-4.018157754012681	-4.018157754012925	-0.1850200770294733	0.006119335566710954	-0.7395785017262303	-0.2186870679877776	-2.686439109413501e-08	-5.167159833104305e-08	8.863172533229853e-08	1.342115609428164e-08	-4.180401463654675e-08	6.369783718845666e-08	-2.446604975404244e-08
1.06	-0.1456259936020807	-0.08660821510561317	0.7373526330197662	1.212732897859596	-0.3282072746900762	-0.01245123286442212	-0.9592637863408873	1.134703758965572	1.134703758964314	-0.08137987914428085	-0.1745284527685888	0.1447554257076027	0.01245342464483081	0.164980335589208	0.03849768952079773	0.1382077747187046	-0.5612364338732192	0.001416881440766233	-0.1462751176905974	0.02936439738453721	-0.4081602090514946	-0.4081602090514971	-0.01065076687076674	4.695185744115217e-05	-0.03595929282512184	-0.009215736444303717	-0.3929130443592769	0.02399096805419604	-0.005405048128929074	-0.2897404833164773	0.1037357430397439	0.03995882395433852	0.4358366445000026	-16.74040645104167	-14.40238746804149	1.818290214841768	2.349219421770165	-785.8971114173496	-67.30143885806268	-2.371079048029467	0.9200002752892799	0.2676142705896199	1.172401325585538	-4.44743257373089	0.01660200989292899	-1.344664653476893	0.7785416112191533	-4.006778502669822	-4.00677850267018	-0.2167712197163403	-0.01322927661278655	-0.7379112493193519	-0.2287926861588266	-2.941272933180107e-08	-6.044183192335415e-08	9.391106772454271e-08	1.423662856063633e-08	-4.573111175808874e-08	6.398689795641924e-08	-2.645771990730897e-08
